<?xml version="1.0" standalone="no"?>
<!DOCTYPE svg PUBLIC "-//W3C//DTD SVG 20010904//EN"
 "http://www.w3.org/TR/2001/REC-SVG-20010904/DTD/svg10.dtd">
<svg version="1.0" xmlns="http://www.w3.org/2000/svg"
 width="225.000000pt" height="225.000000pt" viewBox="0 0 225.000000 225.000000"
 preserveAspectRatio="xMidYMid meet">
<metadata>
Created by potrace 1.11, written by Peter Selinger 2001-2013
</metadata>
<g transform="translate(0.000000,225.000000) scale(0.100000,-0.100000)"
fill="#000000" stroke="none">
<path d="M884 1905 c-2 -5 -28 -80 -57 -165 l-53 -155 -192 -1 c-106 0 -195
-4 -199 -7 -7 -8 -7 -222 0 -234 3 -5 73 -8 156 -7 83 0 151 -2 151 -6 0 -12
-90 -294 -104 -325 l-13 -30 -127 1 c-69 1 -127 -1 -127 -5 -1 -3 -3 -59 -4
-123 l-2 -118 94 0 c51 0 93 -1 93 -2 0 -2 -24 -78 -54 -170 l-54 -168 128 0
128 0 6 28 c4 15 27 91 52 170 l45 142 216 0 c200 0 215 -1 210 -17 -3 -10
-26 -83 -51 -162 -25 -80 -46 -148 -46 -153 0 -4 55 -8 123 -8 l123 0 21 68
c12 37 36 113 54 169 l32 103 190 2 191 3 -1 115 c-1 63 -2 118 -2 121 -1 4
-64 6 -142 5 -77 0 -144 1 -148 4 -5 3 17 84 49 180 l56 175 115 1 c62 1 120
2 127 3 9 1 12 32 12 121 0 107 -2 120 -17 121 -10 1 -49 1 -86 1 -82 0 -81
-18 -10 186 46 128 49 142 32 143 -11 0 -57 1 -104 1 -47 0 -95 -1 -108 -1
-20 -1 -28 -18 -72 -153 -27 -84 -53 -158 -57 -164 -5 -7 -78 -11 -222 -11
l-214 0 54 156 c30 86 54 160 54 166 0 13 -241 14 -246 0z m486 -578 c0 -18
-102 -332 -111 -341 -8 -9 -415 -14 -424 -5 -2 3 14 58 36 124 21 66 46 145
55 175 l15 55 215 1 c124 0 214 -4 214 -9z"/>
</g>
</svg>
